# xmcd
#
# Track frame offsets:
#       150
#       14848
#       32288
#       47238
#       57960
#       73803
#       84960
#       100523
#
# Disc length: 1553 seconds
#
# Revision: 4
# Processed by: cddbd v1.5.2PL0 Copyright (c) Steve Scherf et al.
# Submitted via: FreeDbEdit v0.1
#
DISCID=5f060f08
DTITLE=Various Artist - A Country Christmas, Volume 2
DYEAR=1900
DGENRE=Christmas
TTITLE0=Earl Thomas Conley - White Christmas
TTITLE1=Dolly Parton - Hard Candy Christmas
TTITLE2=Jerry Reed - Christmas Time's A-Coming
TTITLE3=Eddy Arnold - Winter Wonderland
TTITLE4=Sylvia - Reflections
TTITLE5=Elvis Presley - Silver Bells
TTITLE6=Louise Mandrell - I've Got What You Want for Christmas
TTITLE7=Alabama - Christmas in Dixie
EXTD=
EXTT0=Earl Thomas Conley\n
EXTT1=Dolly Parton\n
EXTT2=Jerry Reed\n
EXTT3=Eddy Arnold\n
EXTT4=Sylvia\n
EXTT5=Elvis Presley\n
EXTT6=Louise Mandrell\n
EXTT7=Alabama\n
PLAYORDER=
